<?xml version="1.0" encoding="UTF-8"?>
<svg id="Calque_1" data-name="Calque 1" xmlns="http://www.w3.org/2000/svg" viewBox="0 0 963.02 681">
  <defs>
    <style>
      .cls-1 {
        letter-spacing: -.02em;
      }

      .cls-2 {
        font-family: EthnocentricRg-Regular, Ethnocentric;
        font-size: 39.43px;
      }

      .cls-2, .cls-3 {
        fill: #1d1c1a;
      }

      .cls-4 {
        letter-spacing: -.03em;
      }

      .cls-5 {
        letter-spacing: -.07em;
      }

      .cls-6 {
        letter-spacing: -.09em;
      }

      .cls-7 {
        letter-spacing: 0em;
      }

      .cls-8 {
        letter-spacing: -.03em;
      }

      .cls-9 {
        fill: #fe0000;
      }

      .cls-10 {
        letter-spacing: 0em;
      }
    </style>
  </defs>
  <path class="cls-3" d="m359.6,194.68l-22.41,55.38-2.1,5.19c-9.2-3.41-22.23-4.62-31.92-5.04l-31.79.14,16.35-55.57,71.88-.09Z"/>
  <polygon class="cls-3" points="864.27 454.73 864.27 465.02 201.25 465.02 208.29 454.73 864.27 454.73"/>
  <polygon class="cls-3" points="864.27 193.95 864.27 430.7 804.78 430.7 804.78 338.07 707.54 339.72 707.54 425.65 685.35 340.1 669.12 277.52 647.52 194.26 707.54 194.18 707.54 277.92 804.78 278.92 804.78 194.04 864.27 193.95"/>
  <path class="cls-3" d="m683.53,430.13h-59.5c-1.2,0-2.24-.83-2.5-2l-26.38-117.33c-1.02-4.56-7.15-5.4-9.37-1.3l-53.95,99.66h0s-3.82,7.07-3.82,7.07c-4.64,8.56-13.59,13.89-23.32,13.89h-8.28c-9.74,0-18.7-5.34-23.33-13.91l-5.77-10.68-52.29-96.73c-2.1-3.89-7.84-3.39-9.24.8l-6.44,19.3c-.79-9.61-3.76-19.82-9.06-29.61-7.85-14.52-19.26-25.3-31.26-30.88l13.72-37.84h0s11.49-31.68,11.49-31.68c.93-2.56,3.35-4.26,6.07-4.26l38.31-.06c2.53,0,4.82,1.46,5.88,3.76l66.71,144.46,71.43-132.35,6.85-12.69c1.13-2.09,3.31-3.39,5.68-3.4l34.46-.05c2.97,0,5.57,2.02,6.29,4.9l6.19,24.77,51.46,206.16Z"/>
  <polygon class="cls-9" points="314.99 285.42 314.85 285.63 308.16 295.49 277.71 340.33 247.42 384.95 236.9 400.45 214.8 432.99 200.05 454.73 193.06 465.02 182.74 480.22 186.64 465.02 189.29 454.73 194.88 432.99 207.22 384.95 218.68 340.33 172.68 340.33 205.11 285.42 225.71 250.55 243.08 221.12 258.62 194.82 301.55 122.12 280.97 194.78 265.23 250.37 261.25 264.39 261.25 264.41 255.3 285.42 314.99 285.42"/>
  <polygon class="cls-3" points="182.46 454.73 179.52 465.02 121.83 465.02 121.83 454.73 182.46 454.73"/>
  <polygon class="cls-3" points="200.63 384.95 187.02 432.99 119.12 432.99 144 384.95 200.63 384.95"/>
  <path class="cls-3" d="m248.24,195.05l-11.43,19.79-20.64,35.75-.3.51h-33.42c-10.11,0-18.3,7.69-18.3,17.16s8.19,17.16,18.3,17.16h13.61l-31.61,54.77c-27.59-6.94-49.13-28.1-55.55-54.77-1.28-5.33-1.96-10.89-1.96-16.59,0-6.13.78-12.08,2.27-17.78,8.32-32.16,38.72-56.01,74.95-56.01h64.06Z"/>
  <path class="cls-3" d="m376.94,358.63c0,4.96-.5,9.8-1.46,14.49-.82,4.07-1.99,8.02-3.48,11.82-10.95,28.08-38.93,48.05-71.7,48.05h-77.65l18.45-27.12,14.23-20.92h46.11c13.27,0,24.02-9.74,24.02-21.74s-10.75-21.74-24.02-21.74h-16.54l.78-1.14,21.93-32.23h0s14.19-20.85,14.19-20.85c25.92,7.32,46.16,27.58,52.81,53.08,1.53,5.86,2.35,11.99,2.35,18.3Z"/>
  <text class="cls-2" transform="translate(118.97 527.61) scale(.95 1)"><tspan x="0" y="0">H</tspan><tspan class="cls-6" x="37.03" y="0">Y</tspan><tspan x="74.02" y="0">D</tspan><tspan class="cls-1" x="111.71" y="0">R</tspan><tspan class="cls-7" x="151.11" y="0">O-ME</tspan><tspan class="cls-8" x="294.37" y="0">C</tspan><tspan x="329.42" y="0">ANI</tspan><tspan class="cls-4" x="423.59" y="0">C</tspan><tspan class="cls-10" x="458.64" y="0">AL SE</tspan><tspan class="cls-5" x="621.22" y="0">R</tspan><tspan x="658.64" y="0">VICE</tspan></text>
</svg>